<mxfile host="Electron" modified="2023-04-23T06:32:50.151Z" agent="Mozilla/5.0 (Macintosh; Intel Mac OS X 10_15_7) AppleWebKit/537.36 (KHTML, like Gecko) draw.io/21.1.2 Chrome/106.0.5249.199 Electron/21.4.3 Safari/537.36" etag="sBScUKLmhKK5v06SUWlB" version="21.1.2" type="device">
  <diagram name="第 1 页" id="kDEcxKlhGnogCA_FphZd">
    <mxGraphModel dx="3799" dy="1569" grid="1" gridSize="10" guides="1" tooltips="1" connect="1" arrows="1" fold="1" page="1" pageScale="1" pageWidth="827" pageHeight="1169" math="0" shadow="0">
      <root>
        <mxCell id="0" />
        <mxCell id="1" parent="0" />
        <mxCell id="aUq7P-wzJuFsCjnPR1w1-1" value="&lt;font style=&quot;font-size: 20px;&quot;&gt;dev call --function &lt;font color=&quot;#ff0000&quot;&gt;0x1::Dao::proposal_state&lt;/font&gt; &lt;font color=&quot;#ff8000&quot;&gt;-t 0x1::STC::STC -t 0x1::UpgradeModuleDaoProposal::UpgradeModuleV2&lt;/font&gt; &lt;font color=&quot;#0000ff&quot;&gt;--arg 0x1acd2c7fd3773b7e2454f4cddcc75762 --arg 0&lt;/font&gt;&lt;/font&gt;" style="text;whiteSpace=wrap;html=1;strokeWidth=1;" vertex="1" parent="1">
          <mxGeometry x="-1450" y="350" width="2200" height="70" as="geometry" />
        </mxCell>
        <mxCell id="aUq7P-wzJuFsCjnPR1w1-2" value="" style="shape=curlyBracket;whiteSpace=wrap;html=1;rounded=1;labelPosition=left;verticalLabelPosition=middle;align=right;verticalAlign=middle;rotation=-90;" vertex="1" parent="1">
          <mxGeometry x="-1425" y="355" width="20" height="70" as="geometry" />
        </mxCell>
        <mxCell id="aUq7P-wzJuFsCjnPR1w1-3" value="内置命令" style="text;html=1;strokeColor=none;fillColor=none;align=center;verticalAlign=middle;whiteSpace=wrap;rounded=0;" vertex="1" parent="1">
          <mxGeometry x="-1445" y="400" width="60" height="30" as="geometry" />
        </mxCell>
        <mxCell id="aUq7P-wzJuFsCjnPR1w1-4" value="" style="shape=curlyBracket;whiteSpace=wrap;html=1;rounded=1;labelPosition=left;verticalLabelPosition=middle;align=right;verticalAlign=middle;rotation=-90;" vertex="1" parent="1">
          <mxGeometry x="-1342.5" y="347.5" width="20" height="85" as="geometry" />
        </mxCell>
        <mxCell id="aUq7P-wzJuFsCjnPR1w1-5" value="命令参数" style="text;html=1;strokeColor=none;fillColor=none;align=center;verticalAlign=middle;whiteSpace=wrap;rounded=0;" vertex="1" parent="1">
          <mxGeometry x="-1360" y="400" width="60" height="30" as="geometry" />
        </mxCell>
        <mxCell id="aUq7P-wzJuFsCjnPR1w1-6" value="" style="shape=curlyBracket;whiteSpace=wrap;html=1;rounded=1;labelPosition=left;verticalLabelPosition=middle;align=right;verticalAlign=middle;rotation=-90;" vertex="1" parent="1">
          <mxGeometry x="-1181.25" y="278.75" width="20" height="222.5" as="geometry" />
        </mxCell>
        <mxCell id="aUq7P-wzJuFsCjnPR1w1-7" value="函数名&lt;br&gt;格式为：地址::模块名::函数名" style="text;html=1;strokeColor=none;fillColor=none;align=center;verticalAlign=middle;whiteSpace=wrap;rounded=0;" vertex="1" parent="1">
          <mxGeometry x="-1251.87" y="400" width="161.25" height="30" as="geometry" />
        </mxCell>
        <mxCell id="aUq7P-wzJuFsCjnPR1w1-8" value="" style="shape=curlyBracket;whiteSpace=wrap;html=1;rounded=1;labelPosition=left;verticalLabelPosition=middle;align=right;verticalAlign=middle;rotation=-90;" vertex="1" parent="1">
          <mxGeometry x="-739.63" y="64.37" width="20" height="651.25" as="geometry" />
        </mxCell>
        <mxCell id="aUq7P-wzJuFsCjnPR1w1-14" style="edgeStyle=orthogonalEdgeStyle;rounded=0;orthogonalLoop=1;jettySize=auto;html=1;exitX=0.5;exitY=1;exitDx=0;exitDy=0;entryX=0.313;entryY=0.293;entryDx=0;entryDy=0;entryPerimeter=0;" edge="1" parent="1" source="aUq7P-wzJuFsCjnPR1w1-9" target="aUq7P-wzJuFsCjnPR1w1-12">
          <mxGeometry relative="1" as="geometry">
            <mxPoint x="-650" y="540" as="targetPoint" />
            <Array as="points">
              <mxPoint x="-730" y="470" />
              <mxPoint x="-860" y="470" />
            </Array>
          </mxGeometry>
        </mxCell>
        <mxCell id="aUq7P-wzJuFsCjnPR1w1-9" value="函数模板的实例化列表" style="text;html=1;strokeColor=none;fillColor=none;align=center;verticalAlign=middle;whiteSpace=wrap;rounded=0;" vertex="1" parent="1">
          <mxGeometry x="-810.2599999999999" y="400" width="161.25" height="30" as="geometry" />
        </mxCell>
        <mxCell id="aUq7P-wzJuFsCjnPR1w1-10" value="" style="shape=curlyBracket;whiteSpace=wrap;html=1;rounded=1;labelPosition=left;verticalLabelPosition=middle;align=right;verticalAlign=middle;rotation=-90;" vertex="1" parent="1">
          <mxGeometry x="-173.81" y="152.18" width="20" height="475.63" as="geometry" />
        </mxCell>
        <mxCell id="aUq7P-wzJuFsCjnPR1w1-15" style="edgeStyle=orthogonalEdgeStyle;rounded=0;orthogonalLoop=1;jettySize=auto;html=1;entryX=0.607;entryY=0.293;entryDx=0;entryDy=0;entryPerimeter=0;" edge="1" parent="1" source="aUq7P-wzJuFsCjnPR1w1-11" target="aUq7P-wzJuFsCjnPR1w1-12">
          <mxGeometry relative="1" as="geometry" />
        </mxCell>
        <mxCell id="aUq7P-wzJuFsCjnPR1w1-11" value="函数的入参列表" style="text;html=1;strokeColor=none;fillColor=none;align=center;verticalAlign=middle;whiteSpace=wrap;rounded=0;" vertex="1" parent="1">
          <mxGeometry x="-249.9999999999999" y="400" width="161.25" height="30" as="geometry" />
        </mxCell>
        <mxCell id="aUq7P-wzJuFsCjnPR1w1-12" value="&lt;div style=&quot;font-size: 20px;&quot;&gt;&lt;font style=&quot;font-size: 20px;&quot;&gt;public fun &lt;font color=&quot;#ff0000&quot;&gt;proposal_state&lt;/font&gt;&amp;lt;&lt;font color=&quot;#ff8000&quot;&gt;TokenT: copy + drop + store, ActionT: copy + drop + store&lt;/font&gt;&amp;gt;(&lt;span style=&quot;background-color: initial;&quot;&gt;&lt;font color=&quot;#0000ff&quot;&gt;proposer_address:address,&amp;nbsp;&lt;/font&gt;&lt;/span&gt;&lt;span style=&quot;background-color: initial;&quot;&gt;&lt;font color=&quot;#0000ff&quot;&gt;proposal_id: u64&lt;/font&gt;&lt;/span&gt;&lt;span style=&quot;background-color: initial;&quot;&gt;)&lt;/span&gt;&lt;/font&gt;&lt;/div&gt;" style="text;html=1;strokeColor=none;fillColor=none;align=left;verticalAlign=middle;whiteSpace=wrap;rounded=0;" vertex="1" parent="1">
          <mxGeometry x="-1370" y="517.81" width="1630" height="110" as="geometry" />
        </mxCell>
        <mxCell id="aUq7P-wzJuFsCjnPR1w1-13" value="" style="endArrow=classic;html=1;rounded=0;exitX=0.5;exitY=1;exitDx=0;exitDy=0;edgeStyle=orthogonalEdgeStyle;endFill=1;entryX=0.104;entryY=0.293;entryDx=0;entryDy=0;entryPerimeter=0;" edge="1" parent="1" source="aUq7P-wzJuFsCjnPR1w1-7" target="aUq7P-wzJuFsCjnPR1w1-12">
          <mxGeometry width="50" height="50" relative="1" as="geometry">
            <mxPoint x="-770" y="450" as="sourcePoint" />
            <mxPoint x="-920" y="540" as="targetPoint" />
          </mxGeometry>
        </mxCell>
      </root>
    </mxGraphModel>
  </diagram>
</mxfile>
